<?xml version="1.0" standalone="no"?>
<!DOCTYPE svg PUBLIC "-//W3C//DTD SVG 20010904//EN"
 "http://www.w3.org/TR/2001/REC-SVG-20010904/DTD/svg10.dtd">
<svg version="1.0" xmlns="http://www.w3.org/2000/svg"
 width="515.000000pt" height="484.000000pt" viewBox="0 0 515.000000 484.000000"
 preserveAspectRatio="xMidYMid meet">
<g transform="translate(0.000000,484.000000) scale(0.100000,-0.100000)"
fill="#000000" stroke="none">
<path d="M2448 3834 c-71 -17 -130 -46 -185 -91 -71 -59 -111 -146 -138 -309
-13 -75 -14 -101 -5 -129 11 -33 10 -37 -19 -64 -25 -24 -31 -37 -31 -71 0
-81 56 -150 123 -150 17 0 30 -7 34 -17 16 -44 68 -94 127 -123 54 -27 62 -34
59 -54 -4 -21 -13 -25 -64 -30 -45 -5 -90 -23 -184 -71 -69 -35 -125 -62 -125
-60 0 19 23 55 38 60 48 15 70 137 32 175 -11 11 -24 20 -30 20 -5 0 -10 26
-10 58 0 119 -60 264 -138 333 -119 106 -281 124 -440 49 -120 -56 -191 -132
-218 -231 -16 -63 -20 -229 -5 -278 9 -28 7 -38 -9 -59 -25 -31 -25 -78 0
-119 29 -49 63 -66 115 -61 39 5 47 2 72 -24 15 -16 44 -38 63 -48 l35 -19
-32 -1 c-53 0 -127 -78 -135 -144 -3 -15 -25 -53 -50 -84 -96 -119 -113 -179
-87 -316 8 -47 7 -66 -5 -103 -9 -25 -14 -49 -11 -52 2 -4 26 -17 53 -30 78
-36 80 -50 48 -331 -14 -128 -23 -236 -20 -241 8 -13 80 -49 99 -49 25 0 17
-14 -18 -31 -37 -18 -77 -72 -77 -104 0 -26 27 -40 93 -50 49 -8 132 12 200
47 37 18 38 21 32 56 l-6 37 81 0 81 0 -6 -27 c-5 -21 -1 -30 20 -44 43 -28
153 -64 198 -64 53 0 111 28 115 56 3 22 -42 76 -88 105 l-24 16 45 20 c26 12
49 25 52 29 5 8 0 70 -38 504 -15 166 -39 378 -51 447 l-6 32 93 -31 c52 -16
96 -32 98 -34 3 -2 -3 -86 -13 -187 -9 -100 -28 -292 -40 -427 -15 -153 -20
-249 -14 -257 23 -28 182 -78 316 -98 37 -6 42 -10 42 -32 0 -14 -8 -31 -17
-38 -14 -10 -20 -8 -41 17 -29 34 -65 54 -120 67 -49 10 -81 -6 -130 -65 -58
-70 -35 -105 79 -119 119 -15 298 70 250 118 -6 6 -11 19 -11 29 0 17 9 19
103 18 56 -1 129 4 162 10 122 22 134 23 75 1 -34 -12 -66 -33 -85 -54 -28
-32 -31 -34 -52 -20 -17 12 -20 19 -13 32 6 13 5 18 -5 18 -15 0 -28 -49 -19
-72 7 -17 90 -58 154 -75 90 -24 210 8 210 55 0 25 -71 106 -115 132 l-20 11
20 7 c11 4 44 18 73 31 48 21 52 26 52 56 0 46 -59 652 -75 775 l-6 42 38 7
c21 4 62 15 92 26 30 10 55 17 56 16 2 -2 -1 -30 -6 -63 -25 -181 -69 -711
-69 -831 l0 -62 52 -22 51 -22 -39 -22 c-39 -22 -87 -81 -81 -100 2 -5 16 -19
30 -30 44 -33 152 -28 242 10 68 29 70 31 69 65 l-1 35 79 0 78 0 -6 -33 c-6
-33 -6 -34 62 -65 58 -27 81 -32 144 -33 82 0 130 20 130 54 0 23 -57 87 -94
105 -27 14 -28 16 -10 22 62 22 85 35 91 50 6 15 -30 311 -57 477 -9 56 -2 66
64 93 49 20 52 28 32 84 -11 29 -11 42 1 75 8 22 17 74 20 115 5 73 4 76 -34
137 -21 34 -53 78 -70 99 -20 22 -33 48 -33 64 0 31 -48 101 -85 126 -41 27
-89 33 -145 18 -152 -39 -312 -8 -407 79 -57 52 -64 82 -54 247 7 120 11 142
38 201 29 62 34 67 80 83 40 13 45 13 29 1 -11 -8 -26 -15 -33 -15 -20 0 -15
-18 8 -31 20 -10 73 -9 133 4 27 5 50 38 33 49 -16 12 102 0 124 -12 9 -5 20
-6 24 -2 4 4 2 -3 -4 -16 -7 -12 -16 -20 -22 -17 -5 4 -7 11 -4 16 4 5 1 9 -4
9 -6 0 -11 -4 -11 -8 0 -4 -14 -16 -30 -26 -26 -15 -34 -16 -48 -4 -16 12 -16
11 -2 -6 13 -17 13 -19 0 -14 -8 3 -25 2 -36 -3 -19 -7 -21 -5 -16 13 5 21 5
21 -21 2 -15 -10 -27 -22 -27 -26 0 -15 91 -8 123 8 l32 17 -20 -23 -20 -23
45 23 c25 12 56 35 70 51 l25 29 74 -37 c72 -37 74 -39 78 -78 2 -22 17 -66
33 -97 28 -52 29 -61 20 -109 -6 -28 -10 -56 -10 -62 0 -15 30 14 46 45 31 60
103 16 91 -57 -8 -47 -35 -82 -74 -95 -35 -12 -73 -6 -73 12 0 5 -20 -13 -45
-40 -25 -28 -55 -54 -66 -57 -11 -4 -18 -9 -16 -12 9 -8 64 26 89 56 23 26 29
28 71 24 44 -5 49 -3 87 35 35 35 40 45 40 86 0 37 -5 52 -24 69 -22 21 -24
26 -14 72 12 61 3 184 -18 256 -23 77 -122 174 -219 214 -63 27 -81 30 -180
30 -105 0 -114 -2 -177 -33 -40 -19 -82 -50 -104 -75 -40 -46 -104 -170 -104
-201 0 -10 -5 -36 -11 -56 -8 -26 -8 -50 -2 -76 9 -37 10 -36 10 24 0 47 4 67
18 80 16 16 17 16 6 -5 -6 -12 -11 -47 -11 -78 0 -50 -3 -56 -24 -65 -51 -19
-70 -89 -42 -153 7 -13 -8 -10 -66 18 -41 20 -103 41 -139 47 -35 7 -67 17
-71 22 -12 18 -9 46 5 46 31 0 128 73 153 116 21 36 31 44 54 44 33 0 84 39
105 81 25 46 19 106 -12 137 -25 25 -27 32 -28 127 -4 265 -104 410 -320 465
-90 23 -165 24 -247 4z m280 -26 c126 -40 205 -117 242 -236 25 -78 34 -142
34 -229 0 -52 -4 -66 -22 -83 l-22 -20 4 30 c2 18 -1 27 -7 23 -6 -4 -8 2 -4
16 3 14 -3 31 -19 50 -31 38 -31 51 1 21 14 -13 25 -19 25 -14 0 5 5 2 10 -6
18 -28 9 5 -10 40 -19 34 -20 34 -14 6 9 -40 -12 -26 -31 21 -9 20 -18 34 -21
30 -3 -3 0 -15 6 -27 6 -12 9 -24 6 -27 -6 -7 -25 38 -33 80 -5 26 -4 27 20
18 32 -12 67 -42 62 -52 -3 -4 3 -13 12 -20 12 -10 14 -10 9 -1 -4 6 -2 12 3
12 53 0 -82 88 -190 124 -204 68 -463 33 -608 -82 l-43 -35 6 34 c16 79 59
180 96 222 57 65 169 118 275 130 55 6 149 -5 213 -25z m-12 -241 c6 -6 -43
-87 -52 -87 -2 0 1 12 7 27 10 27 10 27 -11 8 -11 -10 -18 -21 -15 -23 3 -3
-9 -21 -27 -39 l-33 -34 47 26 c44 25 98 82 98 104 0 16 33 14 78 -4 36 -15
40 -21 56 -78 10 -34 29 -78 44 -96 33 -45 39 -112 18 -244 -22 -148 -58 -198
-178 -251 -134 -59 -242 -55 -383 14 -120 60 -148 115 -162 327 -6 90 -5 93
25 140 16 26 33 63 37 80 6 29 9 32 26 22 23 -12 107 -14 141 -4 12 4 37 17
53 29 17 11 32 19 34 18 2 -2 13 11 23 30 19 31 19 32 1 12 -10 -11 -32 -28
-48 -37 -79 -43 -100 -49 -149 -43 -56 6 -68 14 -44 27 9 5 37 25 61 43 25 19
53 36 63 39 27 8 282 3 290 -6z m-371 -32 c-16 -14 -42 -30 -57 -36 -16 -6
-28 -19 -28 -28 -1 -24 -39 -103 -62 -128 -12 -13 -29 -23 -37 -23 -14 0 -14
2 -2 9 8 5 15 19 16 30 1 11 -3 17 -8 14 -6 -4 -8 1 -4 11 4 10 7 22 7 27 0 5
5 9 11 9 5 0 7 -5 3 -12 -4 -7 -3 -8 5 -4 6 4 9 11 6 16 -3 5 -1 11 5 15 13 8
3 25 -13 25 -8 0 -8 -3 2 -9 9 -6 10 -11 2 -15 -6 -4 -11 -1 -11 6 -1 29 -31
-46 -37 -92 -5 -45 -4 -48 15 -44 18 5 20 0 23 -45 3 -31 1 -47 -5 -41 -6 6
-10 26 -10 45 0 38 -16 50 -17 13 0 -22 -1 -22 -10 2 -17 41 -12 121 9 149 25
34 112 93 128 87 7 -3 14 0 16 6 3 7 20 17 39 24 47 17 48 17 14 -11z m-494
-182 c73 -36 110 -77 158 -171 36 -71 40 -92 14 -71 -55 45 -188 75 -292 65
-91 -8 -201 -40 -267 -77 -57 -32 -158 -119 -173 -148 -5 -9 -5 -42 -2 -74 4
-31 3 -53 -1 -49 -15 15 -21 188 -9 258 15 85 38 130 94 181 92 85 196 123
322 120 79 -2 99 -6 156 -34z m1714 -8 c87 -23 142 -53 200 -110 63 -61 90
-126 100 -244 l7 -84 -49 49 c-99 102 -200 155 -346 180 -83 15 -110 16 -178
6 -87 -12 -160 -40 -198 -75 l-23 -22 7 25 c34 121 133 233 235 268 78 25 164
28 245 7z m-1409 -112 c3 -10 12 -32 20 -49 8 -16 21 -58 28 -92 l13 -62 -27
0 c-85 0 -144 137 -85 195 29 29 44 32 51 8z m883 -9 c12 -15 21 -40 21 -56 0
-42 -36 -105 -70 -123 -37 -19 -74 -20 -67 -1 3 7 9 34 12 60 4 25 16 63 26
83 11 21 19 43 19 50 0 23 38 14 59 -13z m-1229 -77 c0 -15 -61 -87 -73 -87
-7 0 -4 5 6 11 9 5 24 24 33 42 15 30 14 30 -18 -8 -18 -22 -32 -43 -30 -48 1
-5 -3 -7 -10 -4 -7 2 -21 0 -30 -5 -16 -8 -17 -6 -6 19 6 15 15 32 20 38 4 5
8 16 8 25 0 9 -7 5 -17 -12 -18 -28 -58 -52 -73 -43 -5 3 -11 1 -15 -4 -3 -6
-23 -9 -45 -8 l-40 1 28 22 c15 12 25 24 22 27 -3 3 -20 -8 -39 -24 -19 -16
-31 -32 -27 -36 14 -15 111 -7 146 11 l35 18 -29 -31 -30 -31 30 0 c51 0 116
40 149 92 32 50 45 55 107 38 32 -9 42 -20 77 -84 38 -69 41 -80 51 -200 8
-91 8 -137 0 -167 -26 -97 -153 -179 -291 -187 -84 -5 -185 10 -232 34 -15 9
-46 34 -68 56 -30 31 -43 38 -51 30 -7 -7 -27 -12 -46 -12 -65 0 -123 98 -92
155 18 34 51 40 73 12 38 -49 58 -69 62 -66 2 3 -3 33 -12 68 -16 62 -15 64 7
110 12 25 28 73 34 106 12 55 16 62 58 88 25 15 56 29 69 31 13 2 31 6 39 10
54 22 220 32 220 13z m1568 -34 c7 -22 -64 -40 -137 -35 -23 2 -23 3 10 26 25
19 45 24 78 23 25 -1 46 -7 49 -14z m-1364 -20 c3 -8 10 -12 15 -9 16 10 21
-25 6 -40 -13 -13 -15 -11 -21 13 -4 15 -14 33 -22 39 -13 9 -13 11 1 11 9 0
19 -7 21 -14z m1494 -27 c-2 -1 -12 -8 -22 -16 -18 -14 -18 -14 -6 7 8 12 18
19 23 16 4 -3 7 -6 5 -7z m-389 -40 c-7 -19 -16 -33 -21 -30 -4 3 -3 14 2 25
6 10 8 19 4 19 -3 0 -1 7 6 15 19 23 23 11 9 -29z m-1715 -20 c-9 -25 -26 -56
-39 -70 -27 -29 -22 -35 7 -9 37 34 11 -23 -34 -71 -10 -11 -15 -22 -12 -25 3
-3 9 1 14 9 12 19 16 13 23 -34 6 -39 6 -39 -10 -16 -9 13 -25 32 -35 42 -19
19 -25 44 -8 33 6 -3 10 1 10 9 0 9 5 16 11 16 8 0 9 4 0 13 -6 8 -9 17 -6 21
3 3 1 3 -4 -1 -5 -5 -11 -17 -14 -28 -3 -12 -5 -7 -6 14 -1 30 7 43 55 88 30
29 57 53 59 53 2 0 -3 -20 -11 -44z m653 12 c-3 -8 -6 -5 -6 6 -1 11 2 17 5
13 3 -3 4 -12 1 -19z m1722 -47 c8 -11 19 -17 24 -14 6 4 8 -3 5 -15 -4 -12
-1 -25 4 -29 7 -3 8 -1 4 5 -4 7 -2 12 3 12 6 0 11 -6 11 -14 0 -8 3 -21 6
-29 3 -8 -1 -21 -9 -28 -11 -12 -12 -17 -1 -26 10 -10 14 -6 19 17 4 16 4 34
0 40 -3 5 -1 10 4 10 14 0 14 -46 0 -71 -5 -11 -14 -17 -19 -14 -5 3 -15 -3
-22 -15 -7 -11 -17 -20 -22 -20 -4 0 -3 7 4 15 7 8 9 15 4 15 -5 0 -2 5 6 10
11 7 12 10 2 10 -9 0 -11 7 -7 20 4 11 2 20 -4 20 -6 0 -20 18 -31 40 -11 22
-17 40 -13 40 4 0 2 5 -5 12 -7 7 -12 20 -12 30 0 15 4 17 18 9 9 -5 23 -19
31 -30z m-1675 -83 c9 -12 16 -38 16 -58 0 -36 -32 -100 -50 -100 -14 0 -13
37 1 46 7 4 9 21 5 45 -6 37 6 55 17 27 3 -8 6 -7 6 4 1 27 -16 30 -33 6 -18
-25 -21 -12 -6 26 12 32 24 33 44 4z m975 -55 c8 -29 7 -40 -4 -53 -8 -9 -15
-23 -14 -31 0 -8 4 -6 9 6 5 14 8 7 8 -27 0 -55 -8 -60 -37 -20 -37 53 -39
112 -5 146 23 24 32 20 43 -21z m-369 -78 c-19 -20 -85 -45 -119 -45 -16 0
-13 46 4 63 8 9 28 18 44 22 16 3 39 17 52 31 l24 26 9 -37 c7 -31 5 -40 -14
-60z m-260 74 c0 -5 24 -21 54 -34 45 -20 54 -28 58 -54 5 -35 -3 -38 -63 -19
-54 16 -79 42 -79 83 0 24 5 35 15 35 8 0 15 -5 15 -11z m145 -7 c33 3 69 9
79 13 12 5 17 5 13 -2 -3 -5 -24 -16 -47 -23 -22 -7 -45 -19 -52 -27 -9 -11
-13 -11 -27 0 -9 8 -33 20 -53 26 -50 16 -59 32 -11 19 20 -5 64 -8 98 -6z
m-526 -19 c0 -25 -1 -26 -9 -8 -12 27 -12 35 0 35 6 0 10 -12 9 -27z m346 -35
c6 -13 33 -34 60 -47 l50 -24 -4 -217 -3 -217 23 -17 c29 -20 43 -20 63 0 14
13 16 49 16 232 l0 217 53 25 c28 14 56 35 62 48 11 25 20 26 85 12 86 -19
270 -112 270 -136 0 -29 81 -102 144 -128 67 -29 77 -46 28 -46 -15 0 -54 -11
-86 -25 -33 -13 -64 -21 -69 -18 -6 3 -7 1 -3 -5 14 -23 -35 -22 -95 3 -34 14
-69 25 -77 25 -14 0 -13 34 1 92 2 7 2 9 -1 4 -3 -5 -11 4 -18 20 -11 26 -12
20 -8 -51 3 -44 14 -156 25 -250 16 -149 54 -509 89 -863 12 -120 9 -148 -16
-138 -8 3 -13 2 -9 -3 7 -12 -88 -48 -179 -67 -89 -20 -333 -22 -436 -5 -89
16 -229 67 -237 87 -7 18 55 695 107 1169 12 115 12 155 0 155 -5 0 -10 -15
-10 -32 0 -25 -3 -29 -10 -18 -8 13 -10 12 -10 -2 0 -15 -9 -18 -46 -18 -25 0
-43 -4 -39 -9 3 -5 18 -9 34 -9 15 1 34 -3 41 -7 8 -5 11 -4 6 3 -3 6 -2 13 3
16 12 8 26 -54 15 -63 -5 -4 -34 -17 -64 -28 l-56 -21 -72 35 c-39 20 -99 41
-132 48 -56 12 -60 11 -60 -5 0 -32 -12 -50 -41 -65 -39 -21 -49 -19 -49 10 0
17 9 29 30 40 17 9 30 18 30 21 0 7 -64 -28 -72 -40 -4 -6 -8 -21 -8 -34 0
-19 -4 -22 -27 -16 -16 3 -44 14 -63 23 -29 13 -36 22 -38 50 -3 28 -1 33 10
24 20 -17 118 -52 118 -43 0 5 -21 15 -47 22 l-48 14 70 0 c39 0 82 3 98 7 55
12 137 56 184 100 96 88 292 182 388 186 12 1 24 -8 30 -21z m193 -289 c-3
-194 -5 -223 -20 -232 -12 -8 -21 -7 -32 2 -14 12 -16 45 -16 232 l0 219 35 0
35 0 -2 -221z m-1011 14 c0 -7 -7 -13 -15 -13 -8 0 -27 -14 -43 -32 -38 -39
-60 -27 -36 21 9 17 12 31 8 31 -13 0 -31 -49 -31 -85 0 -36 -13 -47 -24 -19
-12 31 -6 74 14 94 17 17 31 20 74 18 34 -2 53 -7 53 -15z m2099 -14 c10 -8
14 -27 12 -57 -3 -51 -28 -72 -28 -24 0 34 -19 92 -30 92 -4 0 -2 -17 5 -37
19 -54 7 -61 -31 -19 -39 43 -81 49 -86 14 -3 -24 -75 -68 -110 -68 -24 0 -25
48 0 57 9 3 37 15 62 26 25 11 56 21 69 23 13 1 26 6 29 9 10 9 92 -3 108 -16z
m-1616 -63 c63 -30 122 -57 131 -59 13 -4 14 -14 8 -59 -4 -29 -8 -75 -8 -101
-1 -41 -4 -48 -18 -43 -10 2 -29 7 -43 11 -14 3 -51 16 -84 27 -57 21 -58 22
-53 55 3 18 2 33 -3 33 -5 0 -11 12 -13 28 -11 63 6 -144 23 -283 34 -271 76
-788 66 -804 -11 -17 -88 -48 -164 -65 -81 -18 -348 -22 -422 -6 -57 13 -150
49 -170 66 -14 12 -14 34 7 216 12 112 22 220 23 240 0 37 0 37 28 27 56 -23
91 -27 102 -13 9 10 18 10 38 2 51 -20 101 -19 112 1 8 16 101 271 117 322 3
12 -22 26 -116 62 -66 26 -126 47 -133 47 -7 0 -19 4 -26 9 -14 9 -6 32 25 71
8 11 10 30 4 65 l-9 50 -1 -43 c-2 -70 -61 -186 -84 -163 -7 7 -6 16 3 28 12
15 12 16 0 6 -10 -9 -18 -9 -34 -1 -19 10 -20 10 -7 -6 13 -16 12 -17 -15 -11
-24 5 -26 4 -11 -5 10 -7 25 -9 32 -6 20 7 27 -6 55 -115 l26 -97 -56 -17
c-30 -10 -72 -26 -92 -36 l-36 -19 -11 48 c-6 26 -16 88 -23 138 -14 111 -5
144 74 249 47 61 57 70 88 71 50 3 50 3 50 19 0 8 6 14 12 12 7 -1 14 8 16 21
2 13 10 22 22 22 10 0 25 11 34 25 18 27 53 33 62 11 3 -8 27 -23 53 -35 47
-20 48 -21 54 -73 4 -29 7 -89 7 -132 0 -60 4 -84 17 -98 20 -23 36 -23 55 0
14 15 15 35 7 146 -4 70 -10 130 -13 133 -2 3 -4 -60 -3 -139 2 -137 1 -143
-18 -143 -22 0 -26 25 -38 202 l-5 82 39 6 c45 8 99 48 99 74 0 30 91 8 220
-53z m1283 31 c18 -12 27 -26 27 -42 0 -24 -1 -25 -32 -12 -37 15 -58 49 -51
78 5 16 8 17 17 6 6 -7 23 -21 39 -30z m127 26 c0 0 -20 -8 -45 -17 -42 -14
-48 -14 -74 2 l-28 17 73 0 c41 0 74 -1 74 -2z m-2046 -66 c5 -44 3 -58 -6
-55 -19 7 -30 63 -18 94 14 35 16 31 24 -39z m1850 29 c3 -14 20 -33 37 -43
28 -17 30 -21 25 -63 -24 -200 -18 -260 27 -260 40 0 47 18 47 125 0 156 4
167 59 193 27 12 52 32 59 46 13 30 46 25 69 -10 8 -13 23 -26 34 -29 11 -4
17 -10 14 -15 -3 -4 2 -13 10 -20 8 -7 15 -9 15 -4 0 4 6 0 13 -10 7 -10 20
-17 28 -15 41 7 81 -30 154 -141 38 -58 40 -126 6 -261 -20 -78 -29 -97 -48
-106 -21 -10 -23 -10 -12 3 9 12 2 18 -44 39 -31 13 -68 27 -82 31 -14 3 -25
7 -25 8 0 0 13 43 30 95 l29 94 -30 35 c-37 42 -49 72 -49 123 0 21 -4 39 -8
39 -9 0 -35 -57 -37 -80 0 -8 -5 -22 -10 -30 -7 -13 -6 -13 7 -2 9 8 18 26 21
40 3 24 4 25 11 7 4 -11 15 -37 26 -57 l18 -38 -46 -14 c-80 -24 -246 -86
-256 -96 -5 -5 9 -55 32 -117 22 -59 50 -136 62 -171 24 -66 35 -81 52 -64 6
6 17 8 24 5 8 -3 28 0 44 7 22 9 34 10 43 1 13 -10 81 2 137 23 13 5 20 -33
48 -231 18 -131 33 -243 32 -249 0 -17 -112 -62 -195 -79 -91 -19 -303 -19
-392 -1 -88 19 -183 56 -190 73 -10 27 35 602 68 872 11 90 18 180 16 200 -3
34 -4 34 -6 -9 -3 -39 -4 -42 -11 -20 -5 16 -6 5 -3 -30 l5 -56 -68 -22 c-125
-39 -121 -40 -127 10 -4 24 -9 71 -13 105 l-6 62 39 10 c21 6 75 30 119 53
132 70 188 82 198 44z m456 -40 c0 -17 -5 -38 -10 -46 -16 -26 -27 2 -22 60 4
49 6 52 18 35 8 -10 14 -33 14 -49z m-1514 28 c-3 -9 -6 -26 -6 -40 0 -25 3
-26 -80 8 -25 10 -25 10 15 28 52 24 79 25 71 4z m754 -5 c30 -11 59 -24 63
-28 5 -5 -19 -18 -53 -31 -33 -12 -62 -21 -64 -19 -7 9 -15 99 -8 99 4 0 32
-9 62 -21z m-1580 -56 c0 -13 -4 -23 -10 -23 -5 0 -10 17 -10 38 0 27 3 33 10
22 5 -8 10 -25 10 -37z m2370 -5 c0 -16 -4 -28 -10 -28 -5 0 -10 19 -10 43 0
31 3 38 10 27 5 -8 10 -27 10 -42z m-358 -75 c-8 -161 -15 -198 -37 -198 -18
0 -20 8 -23 90 -2 50 0 114 3 143 6 49 8 52 34 52 l27 0 -4 -87z m-1905 -179
c9 4 11 1 7 -6 -5 -8 -2 -9 10 -5 11 5 15 3 10 -5 -5 -7 0 -9 14 -6 14 4 20 2
15 -5 -4 -6 0 -8 10 -4 10 4 17 2 17 -4 0 -6 7 -8 16 -5 10 4 13 2 8 -6 -5 -7
0 -9 14 -6 14 4 20 2 15 -5 -4 -6 0 -8 9 -5 9 4 15 0 16 -10 1 -27 -81 -251
-91 -249 -5 1 -12 -5 -14 -13 -4 -13 -3 -13 7 0 9 12 10 9 4 -15 -3 -16 -8
-39 -10 -50 -1 -11 -3 -21 -3 -23 -1 -2 -13 4 -28 12 -16 8 -36 17 -45 20 -11
3 -18 15 -18 32 0 21 4 25 18 19 9 -3 21 -7 27 -8 9 -2 89 186 97 226 2 15
-14 26 -89 55 -64 25 -93 41 -93 52 0 25 10 30 38 19 14 -5 32 -7 39 -5z
m2198 -18 c0 -15 -21 -27 -90 -53 -49 -19 -94 -39 -99 -43 -5 -5 7 -53 28
-112 48 -133 49 -135 78 -120 l23 11 -24 -2 c-13 -1 -25 3 -27 8 -2 6 9 10 25
10 26 0 28 -3 27 -34 -1 -29 -6 -37 -34 -48 -32 -13 -33 -13 -27 8 5 13 3 19
-3 15 -6 -3 -16 16 -23 47 -7 28 -14 54 -14 57 -4 14 -18 48 -29 70 -8 14 -11
31 -8 39 3 8 0 11 -7 7 -7 -5 -9 -1 -5 9 4 8 1 21 -4 28 -7 8 -7 18 -2 27 6 8
10 11 10 5 0 -5 4 -4 8 2 4 7 24 15 43 17 18 3 36 5 39 7 3 1 9 1 13 0 5 -1 5
4 1 10 -5 9 -2 10 10 6 10 -4 19 -1 22 8 3 8 13 11 22 8 13 -4 14 -3 6 6 -8 9
-20 7 -50 -5 -21 -9 -59 -23 -84 -30 -76 -23 -76 -14 -15 -188 54 -153 69
-212 40 -151 -8 17 -12 20 -10 9 4 -17 0 -23 -19 -26 -18 -4 -23 -1 -18 10 3
10 1 13 -6 8 -8 -5 -10 -1 -5 10 4 11 3 15 -4 11 -7 -5 -9 1 -5 15 3 13 1 19
-5 15 -7 -5 -9 1 -5 15 3 11 1 19 -4 16 -5 -4 -10 8 -10 25 -1 17 -6 33 -13
35 -6 2 -9 8 -5 13 9 15 -6 50 -18 43 -7 -4 -8 -2 -4 5 9 14 -2 53 -14 46 -4
-3 -6 5 -2 17 4 16 2 19 -9 13 -10 -5 -11 -5 -4 3 6 6 18 12 28 14 15 2 26
-20 63 -126 24 -71 47 -132 51 -135 8 -8 1 14 -49 161 -36 102 -47 125 -59
117 -20 -12 -35 -11 -22 2 6 6 23 12 37 12 14 0 23 3 21 7 -7 12 20 19 47 13
19 -4 20 -3 8 7 -12 9 -11 10 9 5 15 -5 21 -3 17 3 -4 6 2 8 16 4 13 -3 19 -1
15 5 -5 7 1 9 15 5 14 -3 19 -1 14 6 -4 8 -2 10 8 6 8 -3 23 -1 33 5 27 16 58
9 58 -13z m-2183 -58 c42 -18 78 -37 78 -43 0 -5 -15 -49 -33 -96 -27 -72 -35
-85 -47 -75 -21 15 -48 52 -33 43 18 -11 29 41 13 56 -10 10 -12 8 -7 -5 4
-11 1 -18 -6 -18 -8 0 -7 -4 3 -11 13 -8 12 -10 -4 -7 -13 2 -20 12 -20 30 -1
14 2 24 6 22 10 -6 9 53 -2 86 -7 23 -8 22 -9 -10 -1 -24 -4 -30 -10 -20 -12
21 -22 80 -14 80 4 0 42 -15 85 -32z m2178 19 c0 -2 -9 -30 -20 -62 -11 -32
-20 -67 -20 -78 0 -12 -10 -31 -22 -44 l-21 -23 -23 57 c-13 31 -21 59 -19 63
2 4 22 13 45 20 23 7 44 18 47 23 3 5 -4 6 -18 1 -13 -4 -32 -8 -41 -8 -9 0
-14 -4 -12 -8 3 -4 -2 -8 -11 -8 -26 0 -27 -25 -3 -86 19 -47 22 -63 13 -80
-9 -19 -15 -10 -44 73 -18 52 -31 96 -29 97 5 5 162 65 171 65 4 1 7 -1 7 -2z
m-1990 -17 c12 -8 11 -10 -7 -10 -13 0 -23 5 -23 10 0 13 11 13 30 0z m-1 -47
c-5 -14 -7 -33 -5 -40 4 -9 1 -11 -6 -7 -8 5 -9 2 -5 -10 4 -9 3 -15 -1 -12
-11 7 -43 -100 -36 -121 5 -15 4 -16 -6 -3 -10 13 -11 11 -7 -8 3 -12 1 -20
-3 -17 -12 7 -23 -32 -14 -46 5 -8 3 -9 -6 -4 -9 6 -10 1 -5 -16 4 -16 3 -20
-3 -11 -5 8 -12 13 -16 12 -31 -7 -19 35 81 296 3 8 14 14 24 14 16 0 17 -4 8
-27z m-421 -171 c12 -2 22 -10 22 -18 0 -11 -9 -9 -44 7 -43 22 -43 22 -33 56
l11 35 11 -38 c8 -28 17 -40 33 -42z m200 19 c28 -33 38 -52 30 -57 -7 -4 -8
-3 -4 4 5 8 0 12 -13 12 -11 0 -23 5 -26 10 -3 6 -10 10 -16 10 -14 0 -11 -52
6 -84 18 -35 18 -36 1 -36 -8 0 -24 12 -35 26 -22 29 -28 25 -11 -7 16 -28 -1
-23 -27 9 -18 21 -22 23 -17 7 5 -17 3 -16 -16 5 -12 14 -18 18 -14 10 5 -11
4 -12 -5 -4 -7 6 -13 33 -14 60 l-2 48 45 17 c25 10 52 18 60 18 8 1 34 -21
58 -48z m2262 28 l57 -21 -8 -44 c-8 -42 -28 -91 -29 -70 0 5 -9 1 -20 -9 -11
-10 -20 -15 -20 -11 0 4 -9 2 -21 -4 -19 -10 -20 -10 -10 9 18 33 12 34 -14 2
-17 -19 -32 -28 -42 -24 -14 5 -14 7 1 15 11 6 16 24 16 60 0 41 -3 49 -12 40
-13 -13 -48 -17 -48 -5 0 11 73 83 84 83 5 0 35 -9 66 -21z m144 -22 c4 -19 3
-26 -4 -22 -5 3 -10 2 -10 -3 0 -5 -8 -12 -17 -15 -10 -2 -26 -8 -35 -12 -10
-4 -18 -3 -18 3 0 5 12 13 26 16 16 4 29 17 36 37 12 34 13 34 22 -4z m-1566
-676 c7 -1 10 -5 7 -11 -3 -5 0 -7 9 -4 14 5 95 -61 85 -70 -2 -2 -17 -8 -33
-12 -22 -5 -28 -4 -24 7 3 8 14 13 24 12 18 -1 18 -1 2 11 -10 7 -15 16 -11
20 4 4 -1 4 -11 0 -12 -5 -14 -9 -6 -14 9 -5 9 -10 1 -14 -6 -4 -21 0 -34 9
-14 9 -48 18 -76 22 -59 7 -75 20 -34 28 15 4 35 10 43 14 8 5 22 7 30 5 8 -1
21 -3 28 -3z m576 0 c-2 -3 10 -11 28 -19 l33 -15 -57 -8 c-62 -9 -114 -31
-120 -51 -4 -10 -10 -10 -33 0 -26 12 -27 13 -10 32 10 11 27 18 39 16 12 -2
15 -1 8 1 -19 7 -8 29 12 25 9 -2 16 2 16 8 0 6 4 9 9 5 5 -3 12 -1 16 5 3 6
19 9 35 8 16 -1 27 -4 24 -7z m-1418 -25 c117 -10 146 -25 109 -56 -12 -10
-20 -6 -46 19 -43 44 -60 39 -18 -6 21 -22 27 -34 16 -30 -12 5 -16 3 -11 -5
5 -8 2 -9 -10 -5 -10 4 -15 3 -11 -3 3 -6 1 -10 -4 -10 -6 0 -11 4 -11 8 0 15
-77 52 -109 52 -17 0 -31 3 -31 8 0 11 37 32 45 24 4 -4 10 -7 13 -8 15 -2 48
-18 75 -36 15 -11 27 -15 27 -10 0 5 -11 15 -25 22 -14 7 -25 17 -25 21 0 5
-6 6 -14 3 -8 -3 -17 0 -21 5 -3 6 -11 8 -17 5 -7 -4 -8 -2 -4 5 4 6 11 9 15
7 4 -3 30 -7 57 -10z m514 4 c0 -5 -8 -14 -17 -19 -10 -6 -13 -11 -7 -11 5 0
15 5 22 12 9 9 15 9 25 -1 10 -11 10 -13 0 -7 -7 4 -13 2 -13 -3 0 -6 -7 -11
-17 -11 -9 0 -31 -11 -49 -25 -32 -25 -71 -34 -59 -15 4 6 12 7 18 4 7 -4 9
-4 5 1 -4 4 -3 13 2 20 7 8 5 12 -5 12 -8 0 -12 -4 -10 -8 6 -9 -24 -33 -32
-25 -4 3 3 20 16 36 12 17 17 30 11 30 -6 0 -18 -13 -28 -29 -17 -28 -19 -28
-45 -15 -49 26 -29 40 76 50 28 3 53 7 56 9 8 9 51 5 51 -5z m1285 -15 c66 -7
85 -14 85 -29 0 -7 -10 -17 -22 -23 -18 -8 -26 -4 -49 21 -21 24 -30 28 -41
19 -14 -12 -61 -7 -54 6 2 3 -10 7 -27 7 l-32 1 30 -13 c17 -7 36 -13 43 -14
7 0 15 -7 19 -15 5 -14 8 -14 24 1 18 16 20 16 34 -2 13 -17 11 -20 -17 -34
-25 -12 -32 -12 -36 -2 -6 18 -76 52 -109 52 l-27 0 33 24 c27 20 38 23 64 15
18 -5 55 -12 82 -14z m475 -1 c0 -8 4 -13 8 -10 4 2 14 1 22 -4 12 -7 10 -9
-5 -8 -11 1 -42 -9 -70 -22 -27 -13 -54 -22 -58 -21 -5 1 -5 -4 -1 -10 4 -8
-1 -9 -17 -4 -32 10 -32 10 -19 34 6 12 15 19 21 16 5 -4 6 -12 2 -18 -4 -7 0
-6 10 2 18 14 23 26 8 16 -5 -3 -12 -1 -16 5 -10 17 -24 11 -38 -16 l-13 -25
-25 20 c-20 18 -22 22 -9 31 8 5 25 10 37 10 12 0 29 3 39 7 12 4 15 3 10 -5
-9 -16 -4 -15 30 3 39 20 84 20 84 -1z m-1429 -39 c46 -24 32 -45 -32 -45 -31
0 -38 17 -16 39 10 10 9 11 -5 6 -10 -4 -18 -16 -18 -26 0 -16 -4 -18 -17 -11
-10 5 -23 7 -30 5 -15 -6 -27 15 -16 30 4 7 0 5 -9 -5 -12 -13 -19 -15 -24 -7
-4 7 1 18 12 26 23 18 111 10 155 -12z m650 15 c25 -14 25 -34 -1 -27 -11 3
-18 2 -15 -3 3 -4 -1 -10 -9 -13 -8 -3 -16 2 -19 14 -3 10 -11 19 -18 19 -10
0 -10 -3 -1 -12 7 -7 12 -16 12 -20 0 -14 -21 -9 -38 10 -10 9 -14 13 -9 8 16
-22 6 -36 -25 -36 -42 0 -67 15 -52 30 32 32 137 50 175 30z m-900 -16 c10
-13 10 -17 -2 -25 -27 -18 -87 -29 -118 -23 -27 6 -30 9 -19 20 15 15 84 42
109 43 9 1 22 -6 30 -15z m-633 -14 c49 -22 54 -36 12 -42 -37 -6 -57 5 -44
24 5 8 1 6 -8 -5 -20 -21 -40 -15 -31 11 5 15 4 15 -8 -1 -16 -20 -49 -14 -49
8 0 30 68 32 128 5z m1038 11 c-7 -11 -70 -41 -96 -46 -10 -2 -28 -9 -39 -15
-12 -6 -21 -7 -21 -3 0 4 33 22 73 39 79 35 91 38 83 25z m700 -10 c23 -10 44
-23 48 -29 9 -15 -51 -20 -103 -9 -54 11 -66 20 -58 41 9 22 62 20 113 -3z
m649 6 c20 -15 13 -37 -12 -37 -9 0 -22 8 -30 18 -13 15 -13 15 -3 -5 9 -19 8
-23 -4 -23 -8 0 -20 8 -26 18 -11 16 -11 16 -6 0 7 -24 -9 -31 -52 -23 l-36 7
24 19 c21 16 77 34 116 38 5 1 18 -5 29 -12z m-1078 -23 c38 -15 73 -31 78
-37 7 -7 3 -7 -10 -3 -11 4 -27 9 -36 11 -20 4 -117 54 -107 55 4 0 38 -12 75
-26z m843 -16 c0 -5 -11 -1 -25 8 -14 9 -25 18 -25 20 0 2 11 -2 25 -8 14 -6
25 -15 25 -20z m-2049 -4 c-30 -13 -56 -22 -58 -20 -6 6 78 44 97 45 8 0 -9
-11 -39 -25z m407 -19 c-6 -6 -98 21 -109 32 -6 6 17 2 51 -9 34 -11 60 -22
58 -23z m1387 36 c-7 -12 -104 -45 -111 -38 -4 4 80 37 114 46 2 1 1 -3 -3 -8z
m-1100 -18 c40 -6 40 -6 11 -14 -16 -5 -34 -5 -40 -1 -6 3 -17 7 -25 9 -7 1
-19 7 -25 14 -8 9 -5 10 14 5 14 -4 43 -10 65 -13z m748 6 c-6 -6 -19 -12 -29
-14 -11 -2 -19 -4 -19 -5 0 -1 -22 -3 -48 -5 -61 -3 -54 4 20 20 77 17 90 18
76 4z m-1588 -25 l50 -13 -60 4 c-36 3 -65 11 -75 21 -14 15 -13 15 10 9 14
-5 48 -14 75 -21z m650 11 c-16 -8 -43 -14 -60 -14 -24 1 -20 4 20 14 65 17
77 17 40 0z m1130 -18 c11 -3 0 -4 -25 -2 -25 2 -45 4 -45 5 0 1 -8 3 -19 5
-10 2 -23 8 -29 14 -5 5 14 4 44 -4 30 -7 63 -16 74 -18z m469 18 c20 -8 36
-18 36 -20 0 -5 -70 22 -79 30 -8 9 6 5 43 -10z m194 -1 c-14 -14 -95 -30
-118 -23 -22 6 -19 7 15 9 22 1 51 6 65 10 31 10 45 12 38 4z"/>
<path d="M2653 3793 c10 -9 56 -10 51 -1 -3 4 -17 8 -31 8 -15 0 -23 -3 -20
-7z"/>
<path d="M2729 3782 c-5 -37 -4 -60 2 -56 4 2 6 14 4 25 -4 18 -1 20 25 14 17
-4 30 -4 30 -2 0 8 -60 27 -61 19z"/>
<path d="M2374 3759 c-11 -12 -26 -18 -37 -15 -10 2 -16 2 -13 -1 3 -4 0 -13
-7 -22 -11 -14 -10 -14 5 -2 10 7 25 11 33 7 9 -3 13 -2 10 4 -8 13 8 13 21 0
7 -7 11 -6 11 4 0 8 -4 13 -9 10 -12 -8 -10 10 4 24 7 7 10 12 7 12 -3 0 -14
-9 -25 -21z"/>
<path d="M2806 3751 c-3 -5 1 -14 8 -20 10 -8 16 -9 21 -1 3 5 -1 10 -10 10
-9 0 -13 5 -10 10 3 6 4 10 1 10 -3 0 -7 -4 -10 -9z"/>
<path d="M2760 3736 c7 -7 13 -7 20 0 6 6 3 10 -10 10 -13 0 -16 -4 -10 -10z"/>
<path d="M2683 3705 c0 -22 2 -30 4 -17 2 12 2 30 0 40 -3 9 -5 -1 -4 -23z"/>
<path d="M2880 3686 c0 -2 12 -27 27 -56 22 -42 25 -55 15 -70 -9 -16 -9 -18
2 -14 8 3 17 0 22 -7 5 -8 3 -10 -7 -4 -8 5 -5 -1 5 -13 11 -12 20 -22 22 -22
4 0 -17 71 -34 115 -13 33 -52 87 -52 71z"/>
<path d="M2206 3555 c-3 -8 0 -17 6 -21 6 -4 8 -3 4 4 -3 5 -1 12 6 14 8 3 9
6 1 11 -6 4 -13 0 -17 -8z"/>
<path d="M2970 3402 c0 -4 5 -13 11 -19 7 -7 9 -23 5 -37 -8 -32 -8 -36 1 -36
10 -1 15 49 8 77 -5 21 -25 33 -25 15z"/>
<path d="M2378 3523 c-10 -2 -18 -9 -18 -14 0 -6 8 -5 20 1 11 6 20 13 20 15
0 3 -1 4 -2 4 -2 -1 -11 -3 -20 -6z"/>
<path d="M2719 3503 c-13 -16 -12 -17 4 -4 16 13 21 21 13 21 -2 0 -10 -8 -17
-17z"/>
<path d="M2482 3460 c-12 -16 -22 -32 -22 -36 0 -4 22 -4 50 -2 47 5 139 52
126 65 -2 3 -19 -5 -36 -17 -24 -17 -34 -19 -44 -10 -11 8 -16 8 -22 -1 -4 -8
-3 -9 4 -5 7 4 12 2 12 -3 0 -6 -8 -11 -17 -12 -10 0 -26 -2 -36 -4 -17 -3
-17 -2 -2 22 24 36 13 38 -13 3z"/>
<path d="M2806 3473 c-6 -14 -5 -15 5 -6 7 7 10 15 7 18 -3 3 -9 -2 -12 -12z"/>
<path d="M2825 3459 c-4 -6 -5 -12 -2 -15 2 -3 7 2 10 11 7 17 1 20 -8 4z"/>
<path d="M2705 3426 c-27 -20 -11 -33 49 -39 29 -3 68 -13 85 -21 36 -19 41
-8 9 21 -46 42 -114 60 -143 39z"/>
<path d="M2335 3420 c-24 -9 -71 -58 -63 -65 2 -3 19 2 36 10 17 9 53 18 81
22 41 5 51 9 51 24 0 16 -8 19 -42 18 -24 0 -52 -4 -63 -9z m75 -11 c0 -4 -10
-6 -22 -6 -13 1 -34 -2 -48 -6 -19 -5 -18 -4 5 7 31 15 65 17 65 5z"/>
<path d="M2319 3305 c-34 -19 -53 -65 -45 -110 8 -42 39 -77 61 -69 8 4 17 -1
21 -10 3 -9 10 -14 14 -11 4 3 21 -5 36 -17 24 -18 26 -19 12 -2 -9 10 -17 24
-18 29 -1 6 -7 9 -13 7 -12 -4 -78 28 -89 43 -4 6 -8 26 -8 47 0 28 7 42 31
62 17 14 39 26 50 26 27 0 79 -28 79 -42 0 -6 -8 -4 -18 5 -42 39 -102 8 -102
-51 0 -67 74 -95 111 -42 34 49 33 78 -5 116 -37 37 -73 43 -117 19z m105 -51
c25 -24 19 -37 -8 -17 -13 10 -22 21 -19 26 6 10 10 9 27 -9z m-51 -25 c-17
-17 -37 -1 -22 17 8 10 15 12 23 4 7 -7 7 -13 -1 -21z m40 -26 c-4 -11 -8 -13
-11 -5 -2 7 -9 9 -15 5 -7 -4 -6 1 2 10 16 20 33 13 24 -10z m-42 -19 c17 -15
20 -15 44 0 25 16 36 7 13 -11 -28 -22 -46 -21 -69 3 -25 27 -16 33 12 8z"/>
<path d="M2699 3290 c-26 -26 -29 -34 -23 -67 9 -54 21 -72 49 -79 56 -14 99
50 70 105 -17 34 -46 46 -74 32 -29 -16 -39 -13 -17 4 71 54 178 -37 136 -116
-6 -10 -16 -19 -23 -19 -7 0 -22 -7 -33 -15 -16 -12 -12 -12 28 1 27 9 51 21
55 26 3 7 1 8 -5 4 -8 -5 -10 3 -5 26 3 18 7 35 9 37 2 2 -3 16 -11 32 -34 65
-106 79 -156 29z m91 -77 c0 -50 -52 -70 -85 -33 -21 23 -9 27 15 5 21 -19 47
-11 55 17 5 13 0 25 -14 37 -11 10 -18 21 -14 24 8 9 43 -32 43 -50z m-65 28
c0 -22 -23 -24 -34 -3 -9 16 -7 19 12 18 12 0 22 -7 22 -15z"/>
<path d="M2236 3175 c-9 -26 -7 -32 5 -12 6 10 9 21 6 23 -2 3 -7 -2 -11 -11z"/>
<path d="M2548 3158 c-22 -23 -23 -44 -2 -56 44 -25 78 19 42 53 -22 20 -24
20 -40 3z m45 -22 c3 -8 -2 -16 -13 -19 -23 -6 -45 7 -36 22 10 16 43 14 49
-3z"/>
<path d="M2651 3162 c-8 -14 -5 -18 12 -19 16 -2 18 0 8 6 -7 5 -10 14 -7 20
4 6 5 11 2 11 -3 0 -10 -8 -15 -18z"/>
<path d="M2456 3155 c-9 -26 -7 -32 5 -12 6 10 9 21 6 23 -2 3 -7 -2 -11 -11z"/>
<path d="M2889 3128 c0 -7 -2 -28 -3 -45 -1 -18 0 -33 4 -33 4 0 8 20 8 45 1
25 0 45 -3 45 -3 0 -5 -6 -6 -12z"/>
<path d="M2420 3113 c0 -6 8 -17 18 -24 16 -13 16 -13 2 6 -8 11 -16 22 -17
24 -2 2 -3 0 -3 -6z"/>
<path d="M2730 3106 c0 -2 8 -10 18 -17 15 -13 16 -12 3 4 -13 16 -21 21 -21
13z"/>
<path d="M2845 3090 c3 -5 8 -10 11 -10 2 0 4 5 4 10 0 6 -5 10 -11 10 -5 0
-7 -4 -4 -10z"/>
<path d="M2240 3078 c0 -7 5 -20 10 -28 8 -12 10 -11 10 7 0 12 -4 25 -10 28
-5 3 -10 0 -10 -7z"/>
<path d="M2690 3078 c0 -11 12 -10 30 2 12 7 10 9 -8 7 -12 0 -22 -5 -22 -9z"/>
<path d="M2558 3062 c-89 -2 -98 -5 -98 -22 0 -99 135 -136 202 -56 20 24 24
72 6 77 -7 2 -57 3 -110 1z m95 -23 c-15 -15 -93 -23 -137 -15 -66 13 -37 26
56 26 68 0 89 -3 81 -11z m-25 -58 c22 -13 -42 -34 -83 -27 -37 7 -46 22 -17
29 30 8 86 7 100 -2z"/>
<path d="M2403 3039 c-2 -16 0 -17 18 -1 10 9 19 17 19 17 0 0 -8 1 -18 1 -10
0 -19 -8 -19 -17z"/>
<path d="M2870 3018 c0 -19 2 -20 10 -8 13 19 13 30 0 30 -5 0 -10 -10 -10
-22z"/>
<path d="M2809 2995 c-5 -20 -4 -32 4 -42 10 -13 -21 -33 -40 -26 -7 3 -13 1
-13 -4 0 -11 -30 -11 -47 0 -6 4 -15 2 -19 -4 -4 -7 -3 -9 4 -5 6 3 13 2 17
-4 3 -5 0 -10 -7 -10 -9 0 -9 -3 2 -10 22 -14 33 -12 26 5 -3 8 -1 15 4 15 6
0 10 -6 10 -12 0 -9 3 -9 9 1 5 8 16 16 24 17 42 6 100 67 73 77 -10 4 -12 -1
-9 -16 4 -18 3 -20 -7 -7 -10 13 -11 12 -6 -3 4 -12 2 -17 -6 -14 -7 2 -12 14
-12 25 1 19 -4 31 -7 17z"/>
<path d="M2280 2971 c0 -6 4 -13 10 -16 6 -3 7 1 4 9 -7 18 -14 21 -14 7z"/>
<path d="M2450 2941 c0 -6 4 -13 10 -16 6 -3 7 1 4 9 -7 18 -14 21 -14 7z"/>
<path d="M2434 2922 c3 -6 -2 -13 -11 -15 -16 -4 -16 -5 -1 -6 21 -1 32 15 17
25 -7 4 -9 3 -5 -4z"/>
<path d="M2206 3393 c-22 -38 -23 -43 -7 -29 17 16 46 76 36 76 -2 0 -15 -21
-29 -47z"/>
<path d="M1705 3361 c14 -14 49 -18 55 -6 3 6 -11 11 -30 13 -24 2 -32 0 -25
-7z"/>
<path d="M1785 3350 c4 -6 12 -9 18 -7 16 6 49 -12 42 -23 -3 -5 -1 -11 4 -14
12 -8 8 21 -5 34 -15 15 -67 24 -59 10z"/>
<path d="M1870 3322 c0 -5 7 -15 15 -22 8 -7 15 -8 15 -2 0 5 -7 15 -15 22 -8
7 -15 8 -15 2z"/>
<path d="M1915 3273 c1 -20 24 -64 25 -48 0 6 4 3 10 -5 5 -9 5 -19 -2 -27 -8
-11 -7 -12 7 -7 14 6 16 4 10 -7 -6 -11 -5 -11 4 -3 10 9 9 17 -4 38 -10 14
-22 26 -29 26 -7 0 -7 3 2 8 10 7 8 12 -6 25 -18 16 -19 16 -17 0z"/>
<path d="M1446 3132 c-3 -5 1 -9 9 -9 8 0 12 4 9 9 -3 4 -7 8 -9 8 -2 0 -6 -4
-9 -8z"/>
<path d="M1319 3073 c-13 -16 -12 -17 4 -4 9 7 17 15 17 17 0 8 -8 3 -21 -13z"/>
<path d="M3598 3297 c5 -20 6 -20 12 -2 5 14 9 15 14 6 5 -7 1 -20 -10 -32 -9
-10 -12 -19 -6 -19 6 0 12 5 14 12 2 6 14 13 25 14 18 3 21 -1 18 -18 -4 -21
-4 -21 13 -5 15 16 15 19 2 27 -8 5 -19 8 -25 6 -5 -1 -15 4 -21 12 -18 25
-43 24 -36 -1z"/>
<path d="M3253 3265 c-10 -10 -9 -14 2 -19 17 -6 26 5 17 21 -5 8 -11 7 -19
-2z"/>
<path d="M3696 3252 c-3 -5 1 -9 9 -9 8 0 12 4 9 9 -3 4 -7 8 -9 8 -2 0 -6 -4
-9 -8z"/>
<path d="M3183 3195 c0 -8 4 -12 9 -9 5 3 6 10 3 15 -9 13 -12 11 -12 -6z"/>
<path d="M3175 3161 c-3 -5 -2 -12 3 -15 5 -3 9 1 9 9 0 17 -3 19 -12 6z"/>
<path d="M3781 3127 c-11 -18 -11 -20 0 -9 7 6 17 12 21 12 10 0 11 -27 1 -33
-5 -2 -2 -2 5 -1 6 2 12 -4 12 -12 0 -11 -6 -14 -17 -10 -12 4 -9 -1 6 -12 13
-11 21 -24 17 -31 -4 -6 -2 -11 3 -11 25 0 3 113 -23 123 -7 3 -18 -5 -25 -16z"/>
<path d="M2113 3208 c-10 -15 -18 -86 -8 -76 3 3 8 14 9 24 2 10 9 20 16 22 8
3 10 0 5 -8 -5 -9 -4 -11 3 -6 20 12 33 -3 20 -23 -9 -15 -8 -24 5 -45 10 -14
23 -26 29 -26 7 0 2 9 -10 20 -24 23 -26 28 -13 49 14 23 -6 51 -36 51 -21 0
-24 2 -13 15 7 8 10 15 7 15 -2 0 -9 -6 -14 -12z"/>
<path d="M2973 3175 c-15 -13 -22 -25 -15 -25 18 0 15 -40 -5 -62 -16 -18 -16
-18 0 -12 27 10 40 41 27 65 -15 27 -6 36 17 18 16 -13 17 -12 4 4 -21 26 7
22 30 -5 17 -21 18 -21 12 -3 -8 25 -23 45 -34 45 -4 0 -21 -11 -36 -25z"/>
<path d="M1845 3067 c-27 -20 -10 -37 29 -30 22 3 46 -1 67 -11 40 -20 42 -20
30 3 -11 19 -68 51 -93 51 -8 0 -22 -6 -33 -13z"/>
<path d="M1780 3029 c-12 -9 -12 -10 4 -5 11 4 23 1 28 -6 7 -10 9 -10 6 1 -6
20 -20 23 -38 10z"/>
<path d="M1494 2996 c-40 -40 -46 -67 -9 -37 14 11 40 23 58 26 57 12 67 16
67 31 0 10 -12 14 -41 14 -33 0 -47 -6 -75 -34z"/>
<path d="M1979 2987 c6 -8 7 -18 3 -22 -4 -5 -1 -5 6 -1 10 6 10 11 1 22 -6 8
-14 14 -16 14 -3 0 0 -6 6 -13z"/>
<path d="M1851 2944 c-13 -16 -21 -41 -21 -64 0 -69 68 -94 100 -37 13 24 13
30 0 55 -10 17 -26 28 -43 30 -36 4 -24 22 14 22 35 0 79 -39 79 -70 0 -29
-18 -60 -34 -60 -24 0 -26 -26 -3 -28 17 -1 19 1 7 8 -13 8 -12 10 3 10 9 0
20 0 24 1 4 0 9 -5 12 -12 2 -7 -1 -9 -8 -5 -7 5 -9 1 -4 -9 5 -13 7 -14 14
-3 5 7 6 20 3 30 -2 9 0 19 6 23 5 3 10 0 11 -7 0 -7 2 -23 5 -36 3 -16 0 -21
-8 -16 -10 5 -10 4 -1 -6 8 -9 9 -19 2 -31 -7 -15 -6 -17 6 -13 11 5 13 2 9
-10 -3 -9 -10 -14 -15 -11 -4 3 -6 -4 -4 -16 3 -14 0 -19 -9 -16 -9 4 -13 -2
-12 -15 1 -13 -6 -22 -16 -24 -17 -2 -22 5 -15 24 1 4 6 6 10 4 5 -1 6 2 2 8
-12 19 -36 -9 -25 -30 6 -11 5 -21 -1 -27 -8 -8 -7 -13 2 -18 7 -5 10 -4 6 2
-4 6 0 16 8 23 8 7 15 9 15 5 0 -4 7 -2 15 5 8 7 13 16 10 20 -3 4 2 11 11 14
8 3 13 10 10 15 -4 5 -1 11 6 13 7 3 11 22 9 49 -2 56 -18 161 -20 133 0 -12
-7 -27 -15 -33 -11 -10 -13 -4 -9 33 5 38 2 48 -20 70 -36 36 -88 36 -116 0z
m19 -49 c0 -8 -7 -15 -15 -15 -16 0 -20 12 -8 23 11 12 23 8 23 -8z m30 -19
c0 -2 -7 -7 -16 -10 -8 -3 -12 -2 -9 4 6 10 25 14 25 6z m17 -29 c-8 -21 -44
-27 -58 -10 -11 12 -9 13 13 8 19 -5 27 -2 32 11 4 9 9 14 12 11 4 -3 4 -12 1
-20z"/>
<path d="M1520 2918 c-35 -19 -52 -56 -45 -103 7 -49 21 -65 54 -64 21 1 22 2
6 6 -35 9 -45 24 -45 68 0 35 5 48 26 64 36 28 67 26 101 -5 l28 -26 -29 21
c-68 50 -131 -35 -71 -95 19 -19 31 -23 48 -18 32 9 39 18 47 64 6 35 4 46
-14 66 -26 29 -72 39 -106 22z m99 -72 c0 -7 -2 -6 -6 2 -2 6 -11 12 -19 12
-9 0 -12 5 -9 10 8 13 35 -6 34 -24z m-55 16 c2 -4 0 -14 -5 -22 -8 -13 -10
-13 -18 0 -10 15 -6 30 9 30 5 0 11 -4 14 -8z m29 -43 c-8 -8 -13 -7 -18 2 -6
8 -4 10 5 4 10 -6 12 -4 6 11 -6 15 -5 17 5 7 9 -10 10 -16 2 -24z m15 -30
c-22 -15 -47 -10 -58 11 -6 11 -7 20 -1 20 5 0 11 -6 14 -14 8 -19 47 -9 48
13 1 12 2 12 6 -3 3 -10 -1 -22 -9 -27z"/>
<path d="M1776 2802 c16 -28 17 -34 4 -42 -9 -6 -17 -5 -21 2 -4 7 -9 7 -13 0
-3 -6 3 -14 15 -17 15 -5 28 -1 43 15 11 13 15 20 9 16 -8 -4 -13 -1 -13 7 0
8 -10 22 -22 33 l-21 19 19 -33z"/>
<path d="M1657 2796 c-3 -8 -2 -18 3 -21 13 -8 20 9 11 24 -6 10 -10 9 -14 -3z"/>
<path d="M1454 2789 c-3 -6 -2 -15 3 -20 5 -5 9 -1 9 11 0 23 -2 24 -12 9z"/>
<path d="M1864 2769 c-3 -6 -2 -15 3 -20 5 -5 9 -1 9 11 0 23 -2 24 -12 9z"/>
<path d="M1895 2769 c-4 -6 -5 -12 -2 -15 2 -3 7 2 10 11 7 17 1 20 -8 4z"/>
<path d="M1280 2741 c-13 -25 -14 -53 -1 -32 7 11 10 10 14 -5 4 -14 5 -12 4
5 -3 38 21 37 25 -1 2 -18 8 -33 13 -33 6 0 16 -4 23 -9 7 -4 16 -5 19 -2 3 3
-2 8 -11 12 -10 4 -16 17 -16 35 0 22 -6 32 -26 39 -33 13 -32 13 -44 -9z m57
-53 c-3 -7 -5 -2 -5 12 0 14 2 19 5 13 2 -7 2 -19 0 -25z"/>
<path d="M1635 2730 c-3 -5 -13 -6 -23 -3 -14 5 -15 3 -4 -8 10 -11 15 -10 29
4 10 9 14 17 11 17 -4 0 -9 -4 -13 -10z"/>
<path d="M1399 2703 c-13 -16 -12 -17 4 -4 16 13 21 21 13 21 -2 0 -10 -8 -17
-17z"/>
<path d="M1718 2713 c-57 -4 -63 -8 -58 -43 3 -24 40 -58 70 -65 57 -13 130
43 130 100 0 20 -7 19 -37 -5 -19 -15 -41 -20 -84 -20 -74 0 -90 20 -17 21 29
1 64 5 78 9 l25 8 -25 -1 c-14 0 -51 -2 -82 -4z m76 -69 c27 -10 7 -24 -34
-24 -50 0 -77 10 -58 21 15 10 69 12 92 3z"/>
<path d="M1300 2671 c0 -6 4 -13 10 -16 6 -3 7 1 4 9 -7 18 -14 21 -14 7z"/>
<path d="M1395 2660 c-3 -6 1 -7 9 -4 18 7 21 14 7 14 -6 0 -13 -4 -16 -10z"/>
<path d="M1903 2616 c-9 -11 -9 -15 0 -19 7 -3 14 3 14 14 2 22 2 22 -14 5z"/>
<path d="M1460 2616 c0 -2 8 -10 18 -17 15 -13 16 -12 3 4 -13 16 -21 21 -21
13z"/>
<path d="M1836 2561 c-4 -5 -2 -12 3 -15 5 -4 12 -2 15 3 4 5 2 12 -3 15 -5 4
-12 2 -15 -3z"/>
<path d="M1344 2972 c3 -5 0 -13 -6 -15 -9 -4 -10 -6 -1 -6 17 -1 25 16 12 25
-7 4 -9 3 -5 -4z"/>
<path d="M3760 2950 c-11 -7 -11 -10 -2 -10 8 0 10 -5 6 -12 -4 -7 -3 -9 1 -5
7 6 17 37 12 37 -1 0 -9 -5 -17 -10z"/>
<path d="M3037 2823 c-11 -10 -8 -25 3 -18 6 4 17 1 25 -5 18 -15 20 1 3 18
-14 14 -22 15 -31 5z"/>
<path d="M2625 2759 c-4 -6 -5 -12 -2 -15 2 -3 7 2 10 11 7 17 1 20 -8 4z"/>
<path d="M2815 2749 c-4 -6 -4 -13 0 -17 3 -3 10 -1 14 6 6 10 13 10 34 -1 15
-8 24 -17 21 -20 -3 -3 3 -3 15 0 12 3 36 -4 56 -16 41 -24 45 -25 45 -10 0 5
-4 8 -9 5 -5 -4 -11 -3 -13 2 -4 9 -128 62 -145 62 -6 0 -15 -5 -18 -11z"/>
<path d="M2276 2728 c-16 -12 -41 -22 -55 -23 -35 0 -34 -20 1 -20 15 -1 25 2
23 6 -3 3 11 15 30 25 19 10 35 22 35 26 0 11 -1 10 -34 -14z"/>
<path d="M2765 2739 c-4 -6 -4 -13 -1 -16 3 -4 6 -1 6 5 0 6 8 13 18 15 15 4
15 5 0 6 -9 0 -20 -4 -23 -10z"/>
<path d="M2910 2700 c12 -8 12 -10 1 -10 -8 0 -12 -2 -9 -5 3 -3 13 -2 22 1
14 5 15 9 4 15 -7 5 -17 9 -23 9 -5 0 -3 -5 5 -10z"/>
<path d="M2118 2672 c-25 -15 -26 -20 -22 -76 5 -71 14 -87 14 -27 0 41 22 99
44 113 22 15 -10 6 -36 -10z"/>
<path d="M2641 2681 c-10 -7 6 -15 56 -30 82 -25 95 -26 68 -7 -11 7 -37 16
-57 20 -21 4 -38 11 -38 16 0 12 -11 12 -29 1z"/>
<path d="M2056 2631 c-14 -15 -15 -21 -4 -27 7 -4 10 -3 5 1 -4 5 0 17 10 27
9 10 14 18 11 18 -3 0 -13 -9 -22 -19z"/>
<path d="M3050 2626 c0 -2 8 -10 18 -17 15 -13 16 -12 3 4 -13 16 -21 21 -21
13z"/>
<path d="M1975 2549 c-3 -4 2 -6 10 -5 21 3 28 13 10 13 -9 0 -18 -4 -20 -8z"/>
<path d="M2170 2500 c0 -5 5 -10 11 -10 5 0 7 5 4 10 -3 6 -8 10 -11 10 -2 0
-4 -4 -4 -10z"/>
<path d="M2050 2496 c0 -2 7 -7 16 -10 8 -3 12 -2 9 4 -6 10 -25 14 -25 6z"/>
<path d="M3125 2480 c3 -5 8 -10 11 -10 2 0 4 5 4 10 0 6 -5 10 -11 10 -5 0
-7 -4 -4 -10z"/>
<path d="M1670 2445 c0 -2 9 -9 19 -15 14 -7 22 -7 27 2 4 6 3 8 -4 4 -6 -3
-13 -2 -17 4 -6 10 -25 14 -25 5z"/>
<path d="M2246 2243 c-4 -32 -9 -110 -12 -173 -3 -63 -9 -131 -13 -150 -4 -19
-4 -50 0 -67 3 -18 3 -30 -2 -28 -7 5 -18 -144 -12 -154 2 -2 6 10 9 27 4 18
11 29 17 25 6 -3 7 -1 3 5 -4 6 -2 74 3 149 23 312 27 534 7 366z"/>
<path d="M2485 2260 c-3 -6 1 -7 9 -4 18 7 21 14 7 14 -6 0 -13 -4 -16 -10z"/>
<path d="M2489 2213 c-13 -16 -12 -17 4 -4 9 7 17 15 17 17 0 8 -8 3 -21 -13z"/>
<path d="M2916 2085 c-4 -14 -4 -30 -1 -35 3 -4 8 -48 11 -97 3 -48 9 -108 14
-133 6 -25 12 -97 16 -160 3 -63 7 -140 10 -170 11 -140 11 -189 1 -183 -6 3
-7 1 -3 -6 4 -6 12 -9 17 -6 5 4 9 1 9 -4 0 -6 5 -11 12 -11 9 0 9 3 1 11 -6
6 -9 18 -6 27 4 8 2 13 -3 10 -5 -4 -10 39 -12 101 -1 58 -14 223 -28 366 -14
143 -25 272 -25 288 0 34 -5 35 -13 2z"/>
<path d="M2240 1777 c0 -20 4 -25 15 -21 13 5 13 9 3 23 -7 9 -14 18 -15 20
-2 2 -3 -8 -3 -22z"/>
<path d="M2270 1746 c0 -2 7 -9 15 -16 13 -11 14 -10 9 4 -5 14 -24 23 -24 12z"/>
<path d="M2310 1712 c0 -5 7 -15 15 -22 8 -7 15 -8 15 -2 0 5 -7 15 -15 22 -8
7 -15 8 -15 2z"/>
<path d="M2355 1670 c3 -5 11 -10 16 -10 6 0 7 5 4 10 -3 6 -11 10 -16 10 -6
0 -7 -4 -4 -10z"/>
<path d="M2199 1608 c0 -24 -4 -82 -7 -130 -4 -49 -4 -88 0 -88 5 0 8 15 9 33
2 100 17 210 30 218 11 7 9 9 -8 9 -20 0 -23 -5 -24 -42z"/>
<path d="M2434 1601 c21 -23 26 -26 26 -11 0 5 -10 15 -22 21 -23 12 -23 12
-4 -10z"/>
<path d="M2180 1356 c0 -14 -4 -36 -10 -50 -8 -21 -7 -24 7 -19 10 4 14 2 10
-4 -3 -5 0 -10 8 -10 12 0 12 3 3 15 -7 8 -11 32 -9 53 1 21 0 39 -3 39 -3 0
-6 -11 -6 -24z"/>
<path d="M2210 1310 c-12 -7 -10 -9 7 -7 12 0 19 5 17 9 -6 10 -6 10 -24 -2z"/>
<path d="M2963 1265 c0 -8 4 -12 9 -9 5 3 6 10 3 15 -9 13 -12 11 -12 -6z"/>
<path d="M2555 2630 c-8 -14 3 -30 21 -30 8 0 14 9 14 20 0 21 -24 28 -35 10z
m25 -10 c0 -5 -4 -10 -10 -10 -5 0 -10 5 -10 10 0 6 5 10 10 10 6 0 10 -4 10
-10z"/>
<path d="M2555 2490 c-8 -14 3 -30 21 -30 8 0 14 9 14 20 0 21 -24 28 -35 10z
m25 -10 c0 -5 -4 -10 -10 -10 -5 0 -10 5 -10 10 0 6 5 10 10 10 6 0 10 -4 10
-10z"/>
<path d="M2018 2393 c7 -3 16 -2 19 1 4 3 -2 6 -13 5 -11 0 -14 -3 -6 -6z"/>
<path d="M1536 2373 c-6 -14 -5 -15 5 -6 7 7 10 15 7 18 -3 3 -9 -2 -12 -12z"/>
<path d="M1815 2364 c10 -8 37 -14 59 -13 41 1 41 1 11 10 -16 5 -43 11 -60
13 -27 4 -28 3 -10 -10z"/>
<path d="M1746 2353 c-12 -12 -6 -33 9 -33 8 0 15 6 15 14 0 17 -14 28 -24 19z"/>
<path d="M2160 2355 c0 -5 4 -16 9 -23 6 -10 11 -9 22 4 11 14 11 16 0 10 -8
-5 -17 -3 -22 5 -5 8 -9 10 -9 4z"/>
<path d="M1400 2296 c0 -2 7 -7 16 -10 8 -3 12 -2 9 4 -6 10 -25 14 -25 6z"/>
<path d="M1347 2255 c-4 -8 -3 -16 1 -19 4 -3 9 4 9 15 2 23 -3 25 -10 4z"/>
<path d="M1746 2231 c-7 -11 18 -33 27 -24 4 3 7 12 7 20 0 15 -26 18 -34 4z"/>
<path d="M1336 2217 c3 -10 9 -15 12 -12 3 3 0 11 -7 18 -10 9 -11 8 -5 -6z"/>
<path d="M1450 2202 c-12 -13 -26 -52 -15 -40 2 1 3 7 4 11 0 5 8 15 18 22 10
7 16 16 13 18 -3 3 -12 -2 -20 -11z"/>
<path d="M2165 2200 c-3 -5 -20 -7 -38 -5 l-32 5 35 -11 c25 -8 35 -8 38 0 2
6 9 8 14 5 7 -4 8 -2 4 4 -9 15 -13 15 -21 2z"/>
<path d="M1507 2175 c-4 -8 -2 -17 3 -20 6 -4 10 3 10 14 0 25 -6 27 -13 6z"/>
<path d="M1981 2134 c0 -11 3 -14 6 -6 3 7 2 16 -1 19 -3 4 -6 -2 -5 -13z"/>
<path d="M1676 2111 c-4 -5 -2 -12 3 -15 5 -4 12 -2 15 3 4 5 2 12 -3 15 -5 4
-12 2 -15 -3z"/>
<path d="M1997 2025 c9 -126 12 -157 17 -200 6 -44 15 -153 22 -255 10 -157
14 -204 20 -209 11 -10 -8 259 -31 464 -2 17 -6 59 -10 95 -3 36 -10 92 -15
125 -8 55 -9 54 -3 -20z"/>
<path d="M1374 2065 c2 -16 12 -55 22 -85 10 -30 17 -58 16 -62 -1 -4 6 -4 15
-1 11 4 13 8 5 11 -7 2 -12 12 -12 22 0 10 -4 22 -10 25 -5 3 -10 21 -10 38
-1 18 -7 43 -16 57 l-14 25 4 -30z"/>
<path d="M1756 1955 c-3 -8 0 -14 6 -12 6 1 14 -9 18 -23 6 -25 6 -25 18 -4 9
17 9 24 -1 31 -26 21 -35 22 -41 8z"/>
<path d="M1771 1874 c0 -11 3 -14 6 -6 3 7 2 16 -1 19 -3 4 -6 -2 -5 -13z"/>
<path d="M1756 1835 c4 -8 8 -15 10 -15 2 0 4 7 4 15 0 8 -4 15 -10 15 -5 0
-7 -7 -4 -15z"/>
<path d="M1743 1812 c0 -12 5 -22 9 -22 11 0 10 12 -2 30 -7 12 -9 10 -7 -8z"/>
<path d="M1731 1754 c0 -11 3 -14 6 -6 3 7 2 16 -1 19 -3 4 -6 -2 -5 -13z"/>
<path d="M1711 1684 c0 -11 3 -14 6 -6 3 7 2 16 -1 19 -3 4 -6 -2 -5 -13z"/>
<path d="M1390 1672 c7 -13 14 -21 17 -18 4 3 12 -2 19 -12 14 -20 86 -58 129
-67 29 -6 29 -6 11 9 -11 9 -28 16 -39 16 -10 0 -15 4 -12 10 4 6 -1 7 -11 3
-11 -4 -15 -3 -11 4 5 7 0 9 -13 6 -12 -3 -28 4 -45 22 -14 16 -25 24 -25 20
0 -5 -7 0 -16 11 -14 18 -15 18 -4 -4z"/>
<path d="M1672 1637 c9 -17 14 -22 16 -12 2 8 8 15 13 15 5 0 9 5 9 11 0 8 -4
8 -13 0 -10 -8 -17 -7 -25 1 -9 9 -8 4 0 -15z"/>
<path d="M2061 1340 c-6 -43 -5 -127 2 -114 4 8 6 40 4 72 -2 31 -4 50 -6 42z"/>
<path d="M1375 1230 c-3 -5 0 -12 6 -16 8 -5 9 -3 4 6 -5 9 -2 10 13 6 11 -4
23 -3 25 1 3 4 -6 9 -19 9 -13 1 -26 -2 -29 -6z"/>
<path d="M1425 1209 c-11 -16 -1 -19 13 -3 7 8 8 14 3 14 -5 0 -13 -5 -16 -11z"/>
<path d="M3171 2396 c-10 -12 -8 -17 11 -26 21 -10 22 -10 5 4 -18 14 -18 15
0 25 10 6 13 11 7 11 -6 0 -17 -6 -23 -14z"/>
<path d="M3522 2378 c2 -9 -7 -12 -27 -10 -23 2 -26 0 -14 -7 20 -13 187 -27
176 -15 -5 5 -16 9 -25 9 -10 0 -16 6 -14 15 3 11 -1 10 -16 -3 -12 -11 -23
-14 -26 -9 -3 6 -16 8 -28 4 -14 -3 -19 -1 -14 6 3 6 2 14 -4 17 -6 4 -9 1 -8
-7z"/>
<path d="M3027 2343 c-9 -2 -14 -9 -11 -15 4 -6 -1 -8 -12 -4 -11 3 -25 2 -32
-3 -10 -6 -6 -11 15 -20 22 -9 29 -19 31 -43 4 -50 12 -46 12 6 0 26 5 56 10
67 6 10 9 18 8 18 -2 -1 -11 -3 -21 -6z"/>
<path d="M3684 2328 c10 -7 30 -23 44 -35 26 -24 52 -30 52 -13 0 5 -7 7 -15
3 -10 -3 -15 0 -13 8 2 8 -3 13 -9 12 -7 -2 -13 1 -13 6 0 5 -8 11 -17 15 -10
3 -25 8 -33 11 -8 3 -7 0 4 -7z"/>
<path d="M3790 2264 c0 -3 10 -14 23 -24 12 -10 20 -21 17 -24 -3 -3 -18 6
-34 20 -15 14 -30 24 -32 21 -3 -3 5 -15 18 -27 13 -11 23 -26 23 -32 0 -6 10
-17 23 -26 20 -13 22 -13 16 2 -3 9 -10 13 -15 10 -5 -3 -6 2 -3 10 5 13 9 12
25 -7 17 -20 17 -23 2 -35 -14 -10 -15 -14 -3 -25 9 -8 11 -8 6 0 -3 6 -2 14
2 17 14 8 35 -40 29 -66 -3 -13 -1 -32 3 -43 6 -14 9 -4 9 36 1 39 -4 60 -14
69 -8 7 -13 16 -10 20 2 4 -6 21 -18 38 -12 16 -29 40 -37 51 -14 20 -30 28
-30 15z"/>
<path d="M3098 2248 c-16 -5 -28 -14 -28 -18 0 -5 14 -4 30 1 17 6 30 15 30
20 0 5 -1 9 -2 8 -2 0 -15 -5 -30 -11z"/>
<path d="M3769 2188 c-6 -21 -5 -37 2 -32 5 3 7 9 4 14 -3 4 1 11 7 13 10 4
10 6 1 6 -7 1 -13 0 -14 -1z"/>
<path d="M3034 2169 c-3 -5 -13 -9 -24 -9 -10 0 -21 -7 -24 -16 -5 -14 -4 -15
9 -4 9 7 29 13 45 12 36 -1 60 22 24 24 -13 1 -27 -2 -30 -7z"/>
<path d="M3625 2170 c-3 -6 1 -7 9 -4 18 7 21 14 7 14 -6 0 -13 -4 -16 -10z"/>
<path d="M3593 2145 c0 -7 6 -11 14 -8 7 3 13 6 13 8 0 2 -6 5 -13 8 -8 3 -14
-1 -14 -8z"/>
<path d="M3761 2129 c-13 -11 -20 -23 -16 -27 4 -4 10 -2 12 4 2 7 12 10 23 7
10 -3 27 0 37 7 15 9 12 10 -17 6 -24 -4 -30 -3 -20 3 8 6 12 12 10 15 -3 2
-16 -4 -29 -15z"/>
<path d="M3851 2083 c0 -10 5 -27 10 -38 7 -16 8 -14 4 9 -4 19 -1 32 7 37 10
7 9 9 -4 9 -11 0 -18 -7 -17 -17z"/>
<path d="M3836 2014 c-8 -21 -8 -49 1 -41 7 7 14 57 8 57 -1 0 -6 -7 -9 -16z"/>
<path d="M3876 1984 c-4 -14 -5 -28 -3 -31 3 -2 8 8 11 23 4 14 5 28 3 31 -3
2 -8 -8 -11 -23z"/>
<path d="M3820 1940 c0 -11 2 -20 4 -20 2 0 6 9 9 20 3 11 1 20 -4 20 -5 0 -9
-9 -9 -20z"/>
<path d="M3849 1947 c-7 -20 -4 -34 7 -34 7 0 11 4 8 8 -2 4 1 9 8 11 8 3 6 7
-5 11 -9 3 -17 5 -18 4z"/>
<path d="M3795 1901 c-3 -5 -1 -12 5 -16 5 -3 10 1 10 9 0 18 -6 21 -15 7z"/>
<path d="M3770 1681 c0 -6 4 -13 10 -16 6 -3 7 1 4 9 -7 18 -14 21 -14 7z"/>
<path d="M3759 1651 c8 -5 18 -29 21 -53 7 -39 8 -40 9 -10 1 38 -14 72 -32
72 -8 0 -7 -3 2 -9z"/>
<path d="M3488 1625 c6 -36 19 -40 14 -4 -2 16 -8 29 -12 29 -4 0 -5 -11 -2
-25z"/>
<path d="M3120 1533 c0 -27 -2 -83 -4 -124 -3 -57 -1 -51 8 29 l11 104 38 -26
c42 -29 47 -30 47 -17 0 5 -9 12 -19 16 -11 3 -33 20 -50 37 l-31 32 0 -51z"/>
<path d="M3780 1527 c0 -14 7 -60 16 -102 9 -43 13 -91 10 -107 -3 -18 -2 -27
4 -23 9 5 15 -29 13 -74 -1 -8 2 -10 9 -3 6 6 6 30 -1 68 -5 33 -15 103 -22
157 -6 53 -15 100 -20 103 -5 3 -9 -6 -9 -19z"/>
<path d="M3275 1450 c3 -5 8 -10 11 -10 2 0 4 5 4 10 0 6 -5 10 -11 10 -5 0
-7 -4 -4 -10z"/>
<path d="M3105 1311 c-3 -5 -1 -12 5 -16 5 -3 10 1 10 9 0 18 -6 21 -15 7z"/>
<path d="M3103 1261 c4 -28 12 -34 14 -11 1 11 -2 22 -8 25 -5 4 -8 -3 -6 -14z"/>
<path d="M3137 1233 c-8 -8 12 -33 26 -33 6 0 2 7 -9 16 -17 14 -17 15 -1 10
11 -3 16 -2 12 4 -7 12 -19 13 -28 3z"/>
<path d="M3184 1226 c1 -8 5 -18 8 -22 4 -3 5 1 4 10 -1 8 -5 18 -8 22 -4 3
-5 -1 -4 -10z"/>
<path d="M3780 1216 c7 -7 13 -7 20 0 6 6 3 10 -10 10 -13 0 -16 -4 -10 -10z"/>
<path d="M3738 1203 c6 -2 18 -2 25 0 6 3 1 5 -13 5 -14 0 -19 -2 -12 -5z"/>
<path d="M3385 2320 c-4 -6 -3 -16 3 -22 6 -6 12 -6 17 2 4 6 3 16 -3 22 -6 6
-12 6 -17 -2z"/>
<path d="M3370 2196 c0 -8 4 -17 9 -20 11 -7 33 18 24 27 -12 12 -33 7 -33 -7z"/>
<path d="M1470 2091 c0 -6 4 -13 10 -16 6 -3 7 1 4 9 -7 18 -14 21 -14 7z"/>
<path d="M1646 2022 c-3 -5 1 -9 9 -9 8 0 15 4 15 9 0 4 -4 8 -9 8 -6 0 -12
-4 -15 -8z"/>
<path d="M1646 1983 c-6 -14 -5 -15 5 -6 7 7 10 15 7 18 -3 3 -9 -2 -12 -12z"/>
<path d="M1625 1939 c-4 -6 -5 -12 -2 -15 2 -3 7 2 10 11 7 17 1 20 -8 4z"/>
<path d="M1605 1869 c-4 -6 -5 -12 -2 -15 2 -3 7 2 10 11 7 17 1 20 -8 4z"/>
<path d="M1513 1952 c-1 -22 0 -24 9 -8 6 10 6 22 2 26 -5 5 -10 -3 -11 -18z"/>
<path d="M1560 1965 c0 -8 5 -15 10 -15 6 0 10 7 10 15 0 8 -4 15 -10 15 -5 0
-10 -7 -10 -15z"/>
<path d="M1534 1939 c-7 -12 15 -31 28 -23 15 10 8 23 -9 17 -11 -4 -14 -3 -9
5 4 7 5 12 2 12 -3 0 -8 -5 -12 -11z"/>
<path d="M1545 1880 c-4 -12 -5 -24 -2 -27 3 -2 8 5 12 17 4 12 5 24 2 27 -3
2 -8 -5 -12 -17z"/>
<path d="M1655 1879 c-4 -6 -5 -12 -2 -15 2 -3 7 2 10 11 7 17 1 20 -8 4z"/>
<path d="M1420 1840 c-9 -6 -10 -10 -3 -10 6 0 15 5 18 10 8 12 4 12 -15 0z"/>
<path d="M1385 1780 c10 -11 20 -20 23 -20 3 0 -3 9 -13 20 -10 11 -20 20 -23
20 -3 0 3 -9 13 -20z"/>
<path d="M3741 1784 c-6 -15 -9 -29 -6 -32 3 -3 5 0 5 6 0 7 6 12 14 12 8 0
18 4 21 10 3 6 -1 7 -10 4 -11 -5 -14 -2 -9 10 10 26 -2 18 -15 -10z"/>
<path d="M2290 1146 c0 -2 9 -6 20 -9 11 -3 18 -1 14 4 -5 9 -34 13 -34 5z"/>
<path d="M2870 1150 c0 -5 -6 -10 -14 -10 -8 0 -17 -4 -21 -10 -3 -5 7 -5 25
1 16 6 27 15 24 20 -7 12 -14 11 -14 -1z"/>
<path d="M3276 1072 c-3 -5 1 -9 9 -9 8 0 12 4 9 9 -3 4 -7 8 -9 8 -2 0 -6 -4
-9 -8z"/>
<path d="M2235 1080 c-3 -5 -1 -10 4 -10 6 0 11 5 11 10 0 6 -2 10 -4 10 -3 0
-8 -4 -11 -10z"/>
<path d="M3220 3029 c-28 -11 -70 -48 -70 -61 0 -5 10 -2 23 6 12 8 40 17 62
21 67 11 73 14 51 31 -23 16 -31 17 -66 3z"/>
<path d="M3543 3013 c-28 -11 -12 -31 30 -38 23 -4 57 -15 75 -26 45 -26 47
-24 21 12 -30 43 -90 67 -126 52z"/>
<path d="M3170 2910 c-25 -25 -33 -59 -21 -90 9 -24 10 -23 11 10 1 42 17 66
55 80 22 8 33 7 51 -5 13 -8 24 -19 24 -22 0 -4 -5 -2 -12 5 -30 30 -78 -3
-78 -55 0 -59 65 -85 96 -38 21 33 13 93 -17 118 -29 23 -84 22 -109 -3z m75
-50 c0 -7 -6 -15 -12 -17 -8 -3 -13 4 -13 17 0 13 5 20 13 18 6 -3 12 -11 12
-18z m45 -5 c0 -8 -2 -15 -4 -15 -2 0 -6 7 -10 15 -3 8 -1 15 4 15 6 0 10 -7
10 -15z m-56 -40 c7 -20 33 -19 45 3 10 16 10 16 11 0 0 -19 -35 -42 -50 -33
-15 9 -32 45 -21 45 5 0 11 -7 15 -15z"/>
<path d="M3453 2897 c0 -7 9 -14 20 -14 11 -1 18 -1 16 0 -2 2 -11 8 -20 15
-12 9 -16 9 -16 -1z"/>
<path d="M3516 2879 c-28 -33 -28 -62 0 -106 17 -27 65 -31 88 -7 22 21 20 77
-2 97 -21 20 -44 21 -75 6 -21 -10 -21 -10 -3 5 55 44 136 5 136 -65 0 -38
-11 -53 -45 -62 -12 -3 -4 -5 18 -6 20 0 37 2 38 7 0 4 2 29 5 55 4 43 2 51
-25 77 -42 43 -99 42 -135 -1z m34 -33 c0 -8 -4 -17 -9 -21 -12 -7 -24 12 -16
25 9 15 25 12 25 -4z m60 -31 c0 -12 -20 6 -31 28 l-11 22 21 -22 c11 -12 21
-25 21 -28z m-18 -9 c17 -12 17 -14 0 -30 -31 -27 -73 -14 -71 24 0 11 4 9 16
-7 13 -19 19 -21 36 -11 20 10 20 11 2 24 -10 8 -15 14 -9 14 5 0 17 -7 26
-14z"/>
<path d="M3345 2841 c-6 -11 13 -26 22 -17 4 3 1 6 -6 6 -7 0 -9 5 -6 10 3 6
4 10 1 10 -3 0 -7 -4 -11 -9z"/>
<path d="M3381 2799 c-1 -9 -8 -20 -17 -23 -21 -8 -14 -50 10 -54 10 -2 23 1
30 8 8 9 5 11 -14 8 -17 -2 -26 2 -28 15 -2 12 3 17 17 17 12 0 21 -4 21 -10
0 -5 5 -10 12 -10 7 0 6 6 -4 18 -9 9 -18 24 -21 32 -4 12 -6 12 -6 -1z"/>
<path d="M3122 2780 c0 -14 2 -19 5 -12 2 6 2 18 0 25 -3 6 -5 1 -5 -13z"/>
<path d="M3330 2789 c0 -5 5 -7 10 -4 6 3 10 8 10 11 0 2 -4 4 -10 4 -5 0 -10
-5 -10 -11z"/>
<path d="M3157 2777 c-3 -8 8 -12 29 -13 42 -2 42 1 5 14 -22 8 -31 7 -34 -1z"/>
<path d="M3490 2761 c0 -6 4 -13 10 -16 6 -3 7 1 4 9 -7 18 -14 21 -14 7z"/>
<path d="M3286 2751 c-3 -5 2 -15 12 -22 15 -12 16 -12 5 2 -7 9 -10 19 -6 22
3 4 4 7 0 7 -3 0 -8 -4 -11 -9z"/>
<path d="M3115 2740 c-5 -9 0 -59 8 -66 2 -2 4 14 5 36 2 40 -2 48 -13 30z"/>
<path d="M3812 2738 c-15 -15 -16 -32 -2 -23 18 11 11 -11 -11 -34 -12 -12
-18 -25 -15 -28 10 -10 41 30 44 57 5 32 10 36 24 22 17 -17 28 -15 22 3 -7
18 -45 20 -62 3z"/>
<path d="M3669 2722 c11 -8 11 -10 0 -15 -10 -4 -8 -6 4 -6 21 -1 18 21 -4 27
-12 3 -12 2 0 -6z"/>
<path d="M3543 2696 c0 -11 33 -16 39 -5 2 2 1 3 -1 2 -2 -1 -11 2 -21 7 -12
6 -17 5 -17 -4z"/>
<path d="M3850 2706 c0 -2 7 -6 15 -10 8 -3 15 -1 15 4 0 6 -7 10 -15 10 -8 0
-15 -2 -15 -4z"/>
<path d="M3290 2674 c0 -26 31 -71 57 -83 54 -25 123 1 143 53 15 40 3 46 -89
44 l-86 -2 78 -3 c85 -4 101 -18 32 -29 -51 -7 -87 0 -109 21 -19 19 -26 19
-26 -1z m155 -54 c19 -7 18 -9 -8 -19 -35 -14 -74 -14 -82 -1 -3 6 4 14 17 19
28 12 47 12 73 1z"/>
<path d="M3731 2676 c-8 -10 -9 -16 -1 -21 5 -3 10 -5 11 -3 4 18 7 38 4 38
-1 0 -8 -6 -14 -14z"/>
<path d="M3170 2676 c0 -2 7 -7 16 -10 8 -3 12 -2 9 4 -6 10 -25 14 -25 6z"/>
<path d="M3128 2653 c7 -3 16 -2 19 1 4 3 -2 6 -13 5 -11 0 -14 -3 -6 -6z"/>
<path d="M3160 2656 c0 -2 7 -7 16 -10 8 -3 12 -2 9 4 -6 10 -25 14 -25 6z"/>
<path d="M3691 2616 c-16 -17 -31 -23 -49 -20 -20 3 -23 2 -13 -5 12 -8 12
-12 2 -25 -7 -9 -17 -14 -20 -11 -4 2 -8 -2 -8 -10 0 -13 2 -13 16 -1 9 8 21
15 26 16 6 1 25 20 43 41 37 43 39 53 3 15z m-40 -49 c-10 -9 -11 -8 -5 6 3
10 9 15 12 12 3 -3 0 -11 -7 -18z"/>
<path d="M3495 2580 c-3 -5 -1 -10 4 -10 6 0 11 5 11 10 0 6 -2 10 -4 10 -3 0
-8 -4 -11 -10z"/>
<path d="M3346 2538 c3 -5 10 -6 15 -3 13 9 11 12 -6 12 -8 0 -12 -4 -9 -9z"/>
<path d="M2450 1136 c0 -2 7 -7 16 -10 8 -3 12 -2 9 4 -6 10 -25 14 -25 6z"/>
<path d="M1771 1017 c-8 -10 -7 -14 2 -14 8 0 14 6 14 14 0 7 -1 13 -2 13 -2
0 -8 -6 -14 -13z"/>
</g>
</svg>
